<svg width="28" height="21" viewBox="0 0 28 21" fill="none" xmlns="http://www.w3.org/2000/svg">
<circle cx="14.2695" cy="6.00429" r="4.59804" stroke="#666666"/>
<path d="M23.2891 20.9063C23.2891 15.9249 19.2509 11.8867 14.2695 11.8867C9.28814 11.8867 5.24993 15.9249 5.24993 20.9063" stroke="#666666"/>
<path d="M20.2695 10.3088C22.4513 10.3088 24.2199 8.54015 24.2199 6.35839C24.2199 4.87433 23.4016 3.58141 22.1916 2.90625" stroke="#666666"/>
<path d="M27.2587 17.9062C27.2587 14.0462 24.1296 10.917 20.2695 10.917" stroke="#666666"/>
<path d="M8.25875 10.3088C6.07699 10.3088 4.30832 8.54015 4.30832 6.35839C4.30832 4.87433 5.12666 3.58141 6.3367 2.90625" stroke="#666666"/>
<path d="M1.26953 17.9062C1.26953 14.0462 4.39871 10.917 8.25875 10.917" stroke="#666666"/>
</svg>
