<svg width="35" height="30" viewBox="0 0 35 30" fill="none" xmlns="http://www.w3.org/2000/svg">
<path d="M23.8611 1.45312H3.63889C2.0434 1.45312 0.75 2.74652 0.75 4.34201V24.5642C0.75 26.1597 2.0434 27.4531 3.63889 27.4531H23.8611C25.4566 27.4531 26.75 26.1597 26.75 24.5642V4.34201C26.75 2.74652 25.4566 1.45312 23.8611 1.45312Z" stroke="#666666" stroke-linecap="round" stroke-linejoin="round"/>
<path d="M8.69449 11.5675C9.89111 11.5675 10.8612 10.5974 10.8612 9.4008C10.8612 8.20418 9.89111 7.23413 8.69449 7.23413C7.49788 7.23413 6.52783 8.20418 6.52783 9.4008C6.52783 10.5974 7.49788 11.5675 8.69449 11.5675Z" stroke="#666666" stroke-linecap="round" stroke-linejoin="round"/>
<path d="M26.75 18.785L19.5278 11.5627L3.63891 27.4516" stroke="#666666" stroke-linecap="round" stroke-linejoin="round"/>
<rect x="17.75" y="14.4531" width="14" height="15" fill="#F3F3F3"/>
<path d="M22.75 23.9531H33.75" stroke="#666666" stroke-linecap="round" stroke-linejoin="round"/>
<path d="M28.25 29.4531V18.4531" stroke="#666666" stroke-linecap="round" stroke-linejoin="round"/>
</svg>
