<svg width="359" height="326" viewBox="0 0 359 326" fill="none" xmlns="http://www.w3.org/2000/svg">
<ellipse cx="80.5536" cy="310.856" rx="78.0848" ry="14.3676" fill="#F3F3F3"/>
<path opacity="0.5" d="M18.0625 83.9004V21C18.0625 9.9543 27.0168 1 38.0625 1H269.174C280.22 1 289.174 9.95431 289.174 21V187.679C289.174 198.725 280.22 207.679 269.174 207.679H105.338" stroke="#666666" stroke-linecap="round"/>
<circle cx="87.376" cy="39.5918" r="15.2402" fill="url(#paint0_linear_101_7712)" stroke="#666666"/>
<rect opacity="0.5" x="93.208" y="79.5117" width="145.86" height="18.1105" stroke="#666666"/>
<path opacity="0.5" d="M124.155 128.316H262.765V147.427H114.46" stroke="#666666"/>
<rect x="304.062" y="74.1289" width="24.9638" height="24.9638" stroke="#3399FF"/>
<path d="M307.739 93.7269L314.462 85.6593L316.983 90.1973L324.883 80.7851" stroke="#3399FF" stroke-linecap="round"/>
<path d="M107.195 130.352L111.99 135.994L121.63 147.734C121.943 148.115 121.932 148.667 121.603 149.034L119.336 151.574C118.929 152.03 118.211 152.017 117.82 151.547L110.104 142.255L106.896 138.391L103.244 134.178C103.087 133.996 103 133.763 103 133.523V131C103 130.448 103.448 130 104 130H106.433C106.727 130 107.005 130.129 107.195 130.352Z" fill="#0088F0"/>
<path d="M303.117 143.219H350.609L339.788 188.306H313.337L306.724 156.444" stroke="#808080" stroke-linecap="round"/>
<path d="M308.093 167.236C304.015 168.228 297.975 170.476 306.44 171.534C317.02 172.857 355.044 173.518 349.423 169.22" stroke="#808080" stroke-linecap="round"/>
<path d="M349.453 173.659L308.478 282.751" stroke="#808080" stroke-linecap="round"/>
<path d="M305.478 173.659L346.453 282.751" stroke="#808080" stroke-linecap="round"/>
<path d="M337.799 143.277C340.036 143.047 345.321 143.247 348.556 145.894C352.599 149.203 356.671 137.42 348.636 137.184C342.208 136.995 338.222 139.92 337.033 141.406C338.772 138.227 343.746 132.253 349.735 133.797C357.221 135.726 349.907 122.496 344.389 127.195C339.975 130.954 337.778 136.032 337.231 138.101C338.898 132.194 340.879 120.091 335.464 118.933C328.695 117.485 330.226 125.845 333.167 132.165C335.52 137.222 334.987 139.12 334.427 139.438C334.35 137.624 333.493 133.469 330.683 131.359C327.171 128.722 321.149 131.51 325.083 135.158C329.016 138.805 330.503 136.917 331.952 139.758" stroke="#666666" stroke-linecap="round"/>
<path d="M321.168 141.473C320.785 136.655 321.97 126.354 329.78 123.701C339.543 120.383 321.714 110.966 318.991 120.241C316.813 127.662 318.073 134.933 318.975 137.64C316.518 129.831 309.883 114.88 302.995 117.545C294.385 120.876 302.202 129.084 310.102 133.987C316.423 137.909 317.215 140.417 316.822 141.181C315.41 139.214 311.418 135.204 306.741 134.903C300.895 134.527 296.215 142.039 303.269 143.234C310.323 144.429 310.601 141.236 314.294 143.347" stroke="#666666" stroke-linecap="round"/>
<path d="M111.5 138C109 138.5 109 142 109 143L114.501 149.499C115.701 142.699 112.5 138 111.5 138Z" fill="white" stroke="#FEFEFE"/>
<path d="M40.6275 165.79C41.9275 164.057 40.8607 165.236 39.076 168.185C36.4269 172.563 30.4442 181.915 26.0637 186.805C20.1964 193.354 11.4262 201.031 10.2897 202.198C8.24378 204.299 11.4305 213.318 21.3041 205.201C26.5563 200.884 37.1111 187.029 42.3359 179.707" stroke="black" stroke-linecap="round"/>
<circle cx="51.7138" cy="122.259" r="25.7585" stroke="black"/>
<path d="M82.9993 112.256L64.7125 117.039L78.7506 119.825C79.2826 119.159 81.979 116.094 83.968 113.791C84.5969 113.063 83.9302 112.013 82.9993 112.256Z" fill="white"/>
<path d="M66.0278 116.96L83.3021 112.236C84.1974 111.991 84.8818 112.968 84.3328 113.717C82.5078 116.204 79.8865 119.697 79.386 120.437" stroke="black" stroke-linecap="round"/>
<path d="M40.3362 166.208C43.7083 179.757 44.8528 207.97 42.2433 223.206C42.2433 228.551 77.7475 233.072 87.0867 225.52C92.1697 221.411 90.1896 202.734 89.6312 193.105C88.9274 180.967 86.8069 176.971 86.8069 172.298C86.8069 169.66 86.8069 158.859 77.475 157.122C58.8345 153.653 50.3402 157.164 42.7208 163.212C42.3034 163.543 42.0384 163.906 41.7125 164.208C37.9449 170.253 41.8362 163.708 41.9468 163.856C42.0575 164.003 38.6844 168.908 37.8362 170.208" stroke="black" stroke-linecap="round"/>
<path d="M65.7558 180.827C65.4593 180.974 65.4759 180.98 65.7448 180.869L63.003 191.488C68.4739 191.157 94.8058 178.283 106.217 168.717C117.628 159.15 115.435 153.991 112.242 153.606C109.048 153.221 95.7905 164.136 87.3976 169.792C81.5315 173.745 67.6046 180.103 65.7448 180.869L65.7558 180.827Z" fill="white"/>
<path d="M51.8349 228.084L51.6538 256.25L32.3195 265.88M38.6589 279.001L61.9821 266.439L65.8911 229.949" stroke="black" stroke-linecap="round"/>
<path d="M71.056 229.954L81.378 260.036L74.5612 286.307M90.6006 287.607C91.4676 278.07 94.0593 261.117 94.0593 255.907L84.6219 227.595" stroke="black" stroke-linecap="round"/>
<path d="M93.5955 297.968C90.1512 295.849 90.5044 290.537 90.394 288.144L74.4974 286.818C74.4974 286.818 66.5491 304.37 68.8674 306.137C71.1856 307.904 93.1098 311.524 101.765 310.111C110.419 308.698 107.505 304.886 104.966 303.157C103.089 302.31 97.0398 300.086 93.5955 297.968Z" fill="white" stroke="#FF9068" stroke-linecap="round"/>
<path d="M32.8588 265.438C33.0537 266.737 37.5082 276.363 38.5728 279.286L32.0169 292.4C31.8082 292.817 31.6971 293.278 31.7104 293.744C31.8131 297.356 32.6129 301.489 32.4349 302.778C31.8595 306.941 28.068 315.548 23.0595 305.699C19.0526 297.82 18.8896 279.332 18.856 272.463L32.8588 265.438Z" fill="white" stroke="#FF9068" stroke-linecap="round"/>
<path d="M76.9115 177.051C79.4513 178.479 79.1029 179.946 93.2501 181.271C103.386 181.371 112.4 172.286 115.582 149.279C116.378 137.058 108.473 130.121 107.048 147.716C106.703 150.71 103.176 165.501 99.186 168.446C96.6643 170.307 89.0122 172.522 81.7325 168.505" stroke="black"/>
<defs>
<linearGradient id="paint0_linear_101_7712" x1="87.376" y1="23.8516" x2="87.376" y2="55.332" gradientUnits="userSpaceOnUse">
<stop stop-color="#FF7A4A"/>
<stop offset="1" stop-color="#FF7A4A" stop-opacity="0"/>
</linearGradient>
</defs>
</svg>
